<?xml version="1.0" encoding="UTF-8"?>
<svg width="104px" height="81px" viewBox="0 0 104 81" version="1.1" xmlns="http://www.w3.org/2000/svg" xmlns:xlink="http://www.w3.org/1999/xlink">
    <title>Asset 1</title>
    <g id="Page-1" stroke="none" stroke-width="1" fill="none" fill-rule="evenodd">
        <g id="Homepage-03" transform="translate(-102.000000, -10.000000)" fill="#231F20">
            <g id="Asset-1" transform="translate(102.000000, 10.000000)">
                <path d="M0.529811321,70.0528302 L0.529811321,68.090566 L5.49433962,68.090566 C6.04355933,68.140653 6.5965995,68.0529759 7.10339623,67.8354717 C7.46595265,67.6375003 7.68041031,67.246881 7.65283019,66.834717 C7.67424868,66.3411751 7.39509945,65.8836806 6.94641509,65.6769811 C6.57565173,65.5171663 6.17161054,65.4498261 5.7690566,65.4807547 L3.80679245,65.4807547 C2.8210367,65.5799104 1.83240318,65.3223087 1.02037736,64.754717 C0.337234388,64.1593636 -0.0382098694,63.2857337 -2.16406754e-16,62.3803774 C-0.0473824506,61.0698592 0.740035624,59.8729837 1.96226415,59.3977358 C2.72067787,59.1822891 3.51119973,59.1025726 4.29735849,59.1622642 L9.61509434,59.1622642 L9.61509434,61.1245283 L3.72830189,61.1245283 L3.23773585,61.1245283 C2.74716981,61.2422642 2.51169811,61.6150943 2.51169811,62.2430189 C2.47576469,62.6880496 2.7175722,63.1092626 3.12,63.3026415 C3.55818931,63.4663522 4.02823461,63.5267866 4.49358491,63.4792453 L6.24,63.4792453 C7.36155047,63.315464 8.4991421,63.6445785 9.36,64.3818868 C9.90148278,65.0603645 10.1863638,65.9080594 10.1645283,66.7758491 C10.2000762,67.8748556 9.67541506,68.9167882 8.77132075,69.5426415 C7.88706475,69.9436847 6.90932495,70.0930616 5.94566038,69.9743396 L0.529811321,70.0528302 Z" id="Path"></path>
                <polygon id="Path" points="14.3637736 61.1049057 10.890566 61.1049057 10.890566 59.1622642 20.2701887 59.1622642 20.2701887 61.1049057 16.6792453 61.1049057 16.6792453 70.0528302 14.3637736 70.0528302"></polygon>
                <path d="M19.210566,70.0528302 L23.7237736,59.1622642 L26.3924528,59.1622642 L30.9056604,70.0528302 L28.1781132,70.0528302 L27.1381132,67.5215094 L22.9977358,67.5215094 L21.9381132,70.0528302 L19.210566,70.0528302 Z M25.0973585,61.7720755 L23.5471698,65.5788679 L26.6475472,65.5788679 L25.0973585,61.7720755 Z" id="Shape"></path>
                <polygon id="Path" points="34.2807547 62.0664151 34.2807547 70.0528302 32.0633962 70.0528302 32.0633962 59.1622642 35.0264151 59.1622642 39.3826415 67.2860377 39.3826415 59.1622642 41.5803774 59.1622642 41.5803774 70.0528302 38.7350943 70.0528302"></polygon>
                <path d="M43.7977358,59.1622642 L48.4286792,59.1622642 C49.952337,59.0360278 51.4653389,59.5075214 52.6475472,60.4769811 C53.5743693,61.6556103 54.0165194,63.1434804 53.8837736,64.6369811 C54.0058889,66.0718503 53.6166539,67.5036788 52.7849057,68.6792453 C51.5677449,69.6836579 49.998277,70.1573261 48.4286792,69.9939623 L43.7977358,69.9939623 L43.7977358,59.1622642 Z M46.1328302,61.1245283 L46.1328302,68.1298113 L48.4286792,68.1298113 C49.3057201,68.2076736 50.1647229,67.8479203 50.7245283,67.1683019 C51.1771091,66.4048475 51.3890942,65.522716 51.3328302,64.6369811 C51.4014779,63.7253255 51.1891852,62.8145214 50.7245283,62.0271698 C50.1525808,61.3694064 49.2954501,61.0324149 48.4286792,61.1245283 L46.1328302,61.1245283 Z" id="Shape"></path>
                <path d="M57.8475472,66.2460377 L57.8475472,70.0528302 L55.5124528,70.0528302 L55.5124528,59.1622642 L60.9675472,59.1622642 C62.2298224,59.0417062 63.4860416,59.4462514 64.4407547,60.2807547 C65.0425649,60.9719281 65.3335122,61.8802513 65.245283,62.7924528 C65.2907279,63.6848782 64.99623,64.5613601 64.4211321,65.245283 C63.675033,66.0144799 62.6243912,66.4102696 61.5562264,66.3245283 L57.8475472,66.2460377 Z M57.8475472,64.2837736 L60.9871698,64.2837736 C62.2822642,64.2837736 62.6943396,63.7932075 62.6943396,62.6158491 C62.7396905,62.2102388 62.6272733,61.8027263 62.3803774,61.4777358 C62.0038484,61.1778136 61.5249881,61.0369724 61.0460377,61.085283 L57.8475472,61.085283 L57.8475472,64.2837736 Z" id="Shape"></path>
                <path d="M71.5245283,59.0837736 C75.2332075,59.0837736 76.9011321,60.9283019 76.9011321,64.7743396 C76.9999651,66.1982935 76.542756,67.6050908 75.6256604,68.6988679 C74.5792036,69.7103123 73.1530917,70.2308431 71.7011321,70.1313208 C70.2059401,70.3390068 68.6983885,69.8467528 67.6138719,68.7967261 C66.5293552,67.7466994 65.9886528,66.2558382 66.1479245,64.754717 C66.1479245,60.9479245 67.7962264,59.1622642 71.5245283,59.1622642 L71.5245283,59.0837736 Z M71.5245283,60.9283019 C70.7288445,60.8616886 69.946909,61.1657746 69.405283,61.7524528 C68.8584897,62.5885915 68.6032511,63.5819527 68.6792453,64.5781132 C68.6792453,67.1290566 69.5426415,68.2867925 71.5049057,68.2867925 C73.4671698,68.2867925 74.330566,67.1486792 74.330566,64.6173585 C74.330566,62.0860377 73.4867925,60.9283019 71.5245283,60.9283019 Z" id="Shape"></path>
                <rect id="Rectangle" fill-rule="nonzero" x="78.549434" y="59.1622642" width="2.3154717" height="10.890566"></rect>
                <polygon id="Path" points="85.2996226 62.0664151 85.2996226 70.0528302 83.0822642 70.0528302 83.0822642 59.1622642 86.045283 59.1622642 90.3818868 67.2860377 90.3818868 59.1622642 92.5992453 59.1622642 92.5992453 70.0528302 89.7539623 70.0528302"></polygon>
                <polygon id="Path" points="97.269434 61.1049057 93.7962264 61.1049057 93.7962264 59.1622642 103.175849 59.1622642 103.175849 61.1049057 99.5849057 61.1049057 99.5849057 70.0528302 97.269434 70.0528302"></polygon>
                <polygon id="Path" points="23.9592453 80.0211321 23.2332075 80.0211321 23.2332075 75.0173585 23.0762264 74.9977358 21.2120755 80.0211321 20.4075472 80.0211321 18.5041509 74.9977358 18.3275472 75.0173585 18.3275472 80.0211321 17.6015094 80.0211321 17.6015094 74.2520755 18.8377358 74.2520755 20.8784906 79.2754717 22.7230189 74.2520755 23.9592453 74.2520755"></polygon>
                <path d="M32.9856604,80.0211321 L32.2007547,80.0211321 L31.5924528,78.490566 L28.629434,78.490566 L28.0015094,80.0407547 L27.2166038,80.0407547 L29.5909434,74.2716981 L30.709434,74.2716981 L32.9856604,80.0407547 L32.9856604,80.0211321 Z M31.3962264,77.9018868 L30.1403774,74.5660377 L28.845283,77.9018868 L31.3962264,77.9018868 Z" id="Shape"></path>
                <path d="M40.7758491,78.490566 C40.8268015,79.0828227 40.5066696,79.6450056 39.9713208,79.9033962 C39.5020578,80.0798617 38.9987276,80.1469724 38.4996226,80.0996226 L36.125283,80.0996226 L36.125283,79.530566 L38.6173585,79.530566 C39.5788679,79.530566 39.9516981,79.2362264 39.9516981,78.5298113 C39.9872858,78.1092112 39.7387054,77.7162938 39.3433962,77.5683019 C39.0433577,77.5364688 38.7407932,77.5364688 38.4407547,77.5683019 L37.9501887,77.5683019 C37.4479562,77.6114028 36.943919,77.5092331 36.4981132,77.2739623 C36.1029498,77.0190102 35.8833411,76.5646473 35.9290566,76.0966038 C35.9130332,75.5019893 36.2112383,74.9428548 36.7139623,74.6249057 C37.1670882,74.437664 37.6571943,74.3570987 38.1464151,74.389434 L40.5011321,74.389434 L40.5011321,74.9781132 L38.1464151,74.9781132 C37.7963412,74.9360732 37.4416192,74.9974674 37.1260377,75.154717 C36.8754045,75.3439649 36.7355838,75.6456832 36.7532075,75.9592453 C36.7532075,76.6264151 37.1260377,76.8815094 38.1464151,76.8815094 L38.4996226,76.8815094 C38.8783728,76.8508137 39.2589857,76.8508137 39.6377358,76.8815094 C39.8515654,76.9181507 40.0534595,77.0056381 40.2264151,77.1366038 C40.6055871,77.4811267 40.8077211,77.9792426 40.7758491,78.490566 L40.7758491,78.490566 Z" id="Path"></path>
                <polygon id="Path" points="48.5267925 74.8407547 46.4860377 74.8407547 46.4860377 80.0211321 45.7011321 80.0211321 45.7011321 74.8407547 43.6407547 74.8407547 43.6407547 74.2520755 48.5267925 74.2520755"></polygon>
                <path d="M55.8067925,80.0211321 L53.8445283,80.0211321 C53.4263744,80.0433314 53.0076359,79.9901583 52.6083019,79.8641509 C52.2991284,79.7311473 52.0338387,79.5134737 51.8430189,79.2362264 C51.4382126,78.6654773 51.2440208,77.971935 51.2935849,77.2739623 C51.2003161,76.3068431 51.5717083,75.3528749 52.2943396,74.7033962 C52.8339392,74.3505437 53.4773787,74.1914136 54.1192453,74.2520755 L55.7086792,74.2520755 L55.7086792,74.8407547 L54.1584906,74.8407547 C53.8048427,74.823573 53.4513111,74.8769363 53.1184906,74.9977358 C52.8692664,75.1260936 52.6692722,75.3329842 52.549434,75.5864151 C52.3126056,75.9599026 52.2088859,76.4024399 52.2550943,76.8422642 L55.8067925,76.8422642 L55.8067925,77.4113208 L52.2550943,77.4113208 C52.2389823,77.8612633 52.3404305,78.3076351 52.549434,78.7064151 C52.8748417,79.2483682 53.4935702,79.5422642 54.1192453,79.4520755 L55.8067925,79.4520755 L55.8067925,80.0211321 Z" id="Path"></path>
                <path d="M64.205283,75.8218868 C64.223145,76.261746 64.0431628,76.686504 63.714717,76.9796226 C63.6223895,77.0629497 63.5161135,77.1293722 63.4007547,77.1758491 L62.7924528,77.3524528 C63.1847905,77.4911478 63.5311371,77.7356278 63.7932075,78.0588679 C64.002398,78.4070454 64.0983846,78.8115601 64.0679245,79.2166038 C64.0679245,79.7464151 64.0679245,79.8837736 64.1660377,80.0211321 L63.4007547,80.0211321 L63.4007547,79.8445283 L63.4007547,79.2558491 C63.3830921,78.742289 63.1646814,78.2561491 62.7924528,77.9018868 C62.3366441,77.5957639 61.7888275,77.4570761 61.2422642,77.509434 L60.2022642,77.509434 L60.2022642,80.0211321 L59.4369811,80.0211321 L59.4369811,74.2520755 L62.0467925,74.2520755 C62.6105273,74.2033285 63.1762956,74.3192087 63.6754717,74.5856604 C64.0658592,74.8735483 64.2867188,75.3373534 64.2641509,75.8218868 L64.205283,75.8218868 Z M63.3811321,75.8218868 C63.42865,75.4571551 63.2501074,75.1000699 62.9298113,74.9192453 C62.6112374,74.7970731 62.2687666,74.7500674 61.9290566,74.7818868 L60.1433962,74.7818868 L60.1433962,76.8815094 L61.9290566,76.8815094 C62.3025027,76.92365 62.6797904,76.8481925 63.0083019,76.6656604 C63.2411634,76.4709671 63.3773492,76.1842603 63.3811321,75.8807547 L63.3811321,75.8218868 Z" id="Shape"></path>
                <rect id="Rectangle" fill-rule="nonzero" x="67.7177358" y="74.2520755" width="1" height="5.7690566"></rect>
                <polygon id="Path" points="77.1954717 80.0211321 76.2339623 80.0211321 73.0158491 75.0762264 73.0158491 80.0211321 72.2701887 80.0211321 72.2701887 74.2520755 73.2709434 74.2520755 76.4498113 79.2362264 76.4498113 74.2520755 77.1954717 74.2520755"></polygon>
                <path d="M85.5939623,80.0211321 L83.474717,80.0211321 C83.0395988,80.0446134 82.6033734,80.0049566 82.1796226,79.9033962 C81.8755821,79.8076474 81.5994447,79.6392709 81.3750943,79.4128302 C80.8369065,78.7980862 80.5744635,77.9894781 80.6490566,77.1758491 C80.5137509,76.1963238 80.9191834,75.2202826 81.7086792,74.6249057 C81.9223296,74.4849035 82.1629914,74.3913128 82.4150943,74.3501887 C82.7804294,74.3127966 83.1486272,74.3127966 83.5139623,74.3501887 L85.5939623,74.3501887 L85.5939623,74.9388679 L83.6316981,74.9388679 L82.7879245,74.9388679 C82.6128463,74.9810092 82.4467112,75.0541087 82.2973585,75.154717 C81.7675472,75.4686792 81.5124528,76.1358491 81.5124528,77.1169811 C81.4857763,77.4434812 81.4857763,77.7716132 81.5124528,78.0981132 C81.5734142,78.3351053 81.6728483,78.5604892 81.8067925,78.765283 C81.9539189,79.013956 82.1728075,79.2123238 82.434717,79.3343396 C82.8037117,79.4435731 83.1884426,79.4900061 83.5728302,79.4716981 L84.789434,79.4716981 L84.789434,77.3720755 L82.9645283,77.3720755 L82.9645283,76.8030189 L85.5743396,76.8030189 L85.5939623,80.0211321 Z" id="Path"></path>
                <path d="M37.6166038,23.5471698 C38.9539436,24.7895562 40.6247387,25.6147243 42.4241509,25.9215094 C39.6966038,27.1381132 36.9690566,23.9592453 34.5750943,23.3313208 C31.6249526,25.3316927 29.2123873,28.0272963 27.5501887,31.1803774 C29.8067925,31.9064151 35.5954717,35.1049057 38.48,34.2415094 C40.0890566,33.1230189 41.0309434,27.5698113 42.2279245,27.6286792 C43.189434,30.925283 47.4279245,30.7683019 51.5290566,30.7683019 C55.6301887,30.7683019 59.8883019,30.925283 60.8301887,27.6286792 C62.0271698,27.6286792 62.9690566,33.1230189 64.5781132,34.2415094 C67.4822642,35.1049057 73.2513208,31.9064151 75.5079245,31.1803774 C73.8457259,28.0272963 71.4331607,25.3316927 68.4830189,23.3313208 C66.1675472,23.9003774 63.44,27.1381132 60.6339623,25.9215094 C62.4750905,25.6367656 64.1897176,24.8101924 65.5592453,23.5471698 C64.7818128,21.641578 63.6271047,19.9128531 62.1645283,18.4649057 C61.9290566,18.9358491 61.7132075,19.3871698 61.4777358,19.8384906 C60.7680208,22.0396568 59.4642565,24.0020937 57.7101887,25.509434 C54.2714923,28.7489694 48.9043568,28.7489694 45.4656604,25.509434 C43.7352027,24.0291286 42.4340388,22.1112673 41.6981132,19.9562264 C41.4822642,19.5049057 41.2467925,19.0535849 41.0309434,18.5826415 C39.569831,19.9904239 38.4084486,21.6791006 37.6166038,23.5471698 Z M29.4339623,30.7879245 C30.9028418,28.431563 32.6778212,26.2804727 34.7124528,24.3909434 C35.5622763,24.9396182 36.4399283,25.4439405 37.3418868,25.9018868 C36.9164253,25.8657674 36.4956847,25.7868786 36.0860377,25.6664151 L34.7516981,25.234717 C32.8568244,26.964677 31.0802498,28.8199191 29.4339623,30.7879245 L29.4339623,30.7879245 Z M73.6241509,30.7879245 C71.9831371,28.8152044 70.2062275,26.9596124 68.3064151,25.234717 L66.9720755,25.6664151 C66.5686517,25.7849776 66.1546096,25.8638427 65.7358491,25.9018868 C66.6337506,25.4481664 67.5050971,24.9437027 68.3456604,24.3909434 C70.4010501,26.2767043 72.1959683,28.4279666 73.6830189,30.7879245 L73.6241509,30.7879245 Z" id="Shape"></path>
                <path d="M51.5879245,38.1856604 C50.8008297,38.151163 50.0278611,37.9645844 49.3116981,37.6362264 L48.3109434,37.3811321 L46.5449057,37.2830189 C44.7984906,35.0264151 43.0520755,34.7124528 41.9728302,35.5562264 C39.6377358,37.3615094 40.4618868,42.6596226 43.4837736,43.405283 C42.4473001,41.9783821 42.3927588,40.0616439 43.3464151,38.5781132 C42.8784877,40.220955 43.2130412,41.9882702 44.2490566,43.3464151 C47.6633962,48.5267925 48.1735849,46.9177358 50.1358491,46.2701887 L48.4875472,47.7811321 C49.429434,49.3509434 50.4498113,50.1358491 51.5290566,50.1554717 C52.6083019,50.1750943 53.6286792,49.3509434 54.5901887,47.7811321 L52.9811321,46.2113208 C54.9433962,46.8588679 55.4928302,48.4679245 58.8679245,43.2875472 C59.8971666,41.9260439 60.2243924,40.1590247 59.7509434,38.5192453 C60.7045997,40.002776 60.6500584,41.9195141 59.6135849,43.3464151 C62.6354717,42.6596226 63.5381132,37.3615094 61.1441509,35.4973585 C60.045283,34.6535849 58.2988679,34.9675472 56.5720755,37.2241509 L54.8060377,37.3222642 L53.805283,37.5773585 C53.082245,37.9058322 52.30284,38.0923564 51.509434,38.1267925 L51.5879245,38.1856604 Z M54.8060377,42.8950943 C52.9811321,42.4633962 53.9230189,41.5803774 51.5879245,41.5607547 C49.2528302,41.5411321 50.194717,42.4633962 48.389434,42.8950943 C45.7992453,43.5033962 47.2120755,38.4407547 48.9781132,39.52 C49.7889057,39.9208414 50.6835666,40.1226446 51.5879245,40.1086792 C52.4925184,40.1249364 53.3877141,39.9230126 54.1977358,39.52 C55.9637736,38.4407547 57.3766038,43.5033962 54.8060377,42.8950943 Z" id="Shape"></path>
                <path d="M48.88,31.690566 C46.6822642,32.0241509 41.7766038,34.1630189 43.4641509,30.5132075 C41.8550943,30.5132075 39.6966038,35.7524528 44.8966038,34.4377358 C46.2113208,34.1237736 50.3320755,31.6120755 50.5479245,34.6535849 C50.1358491,34.6535849 48.5856604,33.1033962 47.5849057,34.6535849 C47.0943396,35.3992453 47.074717,36.7924528 48.9584906,36.8316981 C48.8015094,36.5766038 48.6249057,36.5373585 48.4875472,36.1449057 C48.0754717,35.0067925 49.3313208,35.0264151 49.9396226,36.1449057 C50.2425591,36.7643957 50.902804,37.1259584 51.5879245,37.0475472 C52.2786511,37.1286741 52.9459776,36.7675327 53.2558491,36.1449057 C53.8445283,35.0460377 55.1003774,35.0264151 54.7079245,36.1449057 C54.5509434,36.5373585 54.3743396,36.5766038 54.2173585,36.8316981 C56.1796226,36.8316981 56.0815094,35.3992453 55.5909434,34.6535849 C54.629434,33.1426415 53.0596226,34.6535849 52.6279245,34.6535849 C52.8437736,31.6120755 56.9645283,34.1237736 58.2988679,34.4377358 C63.4792453,35.6739623 61.3207547,30.3954717 59.7116981,30.5132075 C61.3992453,34.1630189 56.4935849,32.0241509 54.2958491,31.690566 C52.4995866,31.4353429 50.6762624,31.4353429 48.88,31.690566 Z" id="Path"></path>
                <path d="M29.0611321,4.47396226 C42.365283,5.94566038 40.2264151,26.8437736 51.5879245,26.8437736 C62.949434,26.8437736 60.8301887,5.88679245 74.1343396,4.47396226 C73.1662906,3.21551739 71.7696407,2.35657769 70.2098113,2.06037736 C69.4877505,1.95290836 68.7537589,1.95290836 68.0316981,2.06037736 C65.7554717,2.45283019 64.9901887,4.35622642 63.9109434,6.78943396 C64.1054773,5.97398961 64.1716812,5.13320011 64.1071698,4.29735849 C63.4988679,1.76603774 60.3592453,2.76679245 58.8679245,3.74792453 C61.1637736,5.21962264 61.8113208,6.61283019 61.1441509,10.4392453 C60.8590373,12.4500832 60.1930526,14.3880986 59.1818868,16.149434 C57.700158,15.0172005 56.0048124,14.1962261 54.1977358,13.7358491 L54.6098113,15.5607547 L54.6098113,16.1886792 L53.805283,18.0135849 L53.9033962,18.0135849 L53.9033962,18.0135849 C54.4936784,18.6085184 54.8251386,19.4124857 54.8256604,20.250566 C54.8260632,21.0946062 54.4948509,21.9050192 53.9033962,22.5071698 L53.9033962,22.5071698 C53.3012456,23.0986245 52.4908327,23.4298368 51.6467925,23.429434 C50.8087121,23.4289122 50.0047448,23.097452 49.4098113,22.5071698 L49.4098113,22.5071698 C48.8183566,21.9050192 48.4871444,21.0946062 48.4875472,20.250566 C48.488069,19.4124857 48.8195292,18.6085184 49.4098113,18.0135849 L49.4098113,18.0135849 L49.5079245,18.0135849 L48.7033962,16.1886792 L48.7033962,15.5607547 L49.0566038,13.7358491 C47.2902156,14.2428464 45.6425446,15.0967001 44.2098113,16.2475472 C43.1986455,14.4862118 42.5326608,12.5481964 42.2475472,10.5373585 C41.5803774,6.7109434 42.2475472,5.31773585 44.5433962,3.84603774 C42.9932075,2.86490566 39.8339623,1.88377358 39.2649057,4.37584906 C39.1413166,5.16858206 39.1347053,5.97515892 39.245283,6.76981132 C38.2249057,4.33660377 37.4596226,2.43320755 35.1833962,1.96226415 C34.4679185,1.85471448 33.7403834,1.85471448 33.0249057,1.96226415 C31.4324476,2.26530121 30.0151518,3.16338969 29.0611321,4.47396226 Z" id="Path"></path>
                <path d="M49.5471698,15.6981132 L51.509434,6.33811321 L53.4716981,15.6981132 L52.3335849,18.2883019 C53.2664027,18.7130663 53.7768575,19.7307273 53.5595342,20.7323981 C53.3422108,21.7340689 52.4559184,22.4486904 51.4309434,22.4486904 C50.4059684,22.4486904 49.519676,21.7340689 49.3023526,20.7323981 C49.0850293,19.7307273 49.5954841,18.7130663 50.5283019,18.2883019 L49.5471698,15.6981132 Z" id="Path"></path>
                <path d="M38.2249057,39.245283 C36.6396021,39.1743366 35.0876328,38.7662757 33.6724528,38.0483019 C35.634717,38.1660377 36.0664151,38.0483019 38.1856604,38.0483019 C38.1348689,37.3349505 38.0299123,36.6264935 37.8716981,35.9290566 C35.909434,35.7720755 33.1622642,34.7320755 31.1607547,34.4966038 C29.5068529,38.7737007 26.3832604,42.3216565 22.3501887,44.5041509 C23.9003774,45.9366038 31.5532075,48.4286792 34.810566,48.8407547 C35.2636853,48.40196 35.6592974,47.9074449 35.9879245,47.3690566 C33.4966353,46.9444937 31.0950167,46.1019369 28.8845283,44.8769811 C31.1018868,45.0535849 34.1630189,46.3683019 36.5177358,46.4664151 C36.7738601,45.9755764 37.0031288,45.4711853 37.2045283,44.9554717 C35.2422642,44.5041509 31.3177358,43.8369811 30.1207547,42.6596226 C32.4558491,42.8754717 35.0067925,43.8369811 37.5577358,43.9154717 C37.7337826,43.3085988 37.8778799,42.6929104 37.989434,42.0709434 C36.949434,41.7177358 35.8701887,41.5411321 34.8498113,41.2664151 C33.8877831,41.1199872 32.9502948,40.8427019 32.0633962,40.4422642 L38.1464151,40.9524528 C38.1464151,40.56 38.1464151,40.1871698 38.1464151,39.794717 L38.2249057,39.245283 Z" id="Path"></path>
                <path d="M64.9509434,39.245283 C66.542024,39.171187 68.0997467,38.7633712 69.5230189,38.0483019 C67.5607547,38.1660377 67.1290566,38.0483019 64.9901887,38.0483019 C65.0472852,37.3344263 65.1588043,36.6259522 65.3237736,35.9290566 C67.2860377,35.7720755 70.0135849,34.7320755 72.034717,34.4966038 C73.6747082,38.7759502 76.7934011,42.3262478 80.8256604,44.5041509 C79.2754717,45.9366038 71.6226415,48.4286792 68.365283,48.8407547 C67.9235003,48.3917726 67.5289792,47.8986212 67.1879245,47.3690566 C69.6853143,46.944073 72.0933171,46.1016037 74.3109434,44.8769811 C72.0739623,45.0535849 69.0128302,46.3683019 66.6581132,46.4664151 C66.4006262,45.9790068 66.1776878,45.474117 65.9909434,44.9554717 C67.9532075,44.5041509 71.7796226,43.8369811 73.0550943,42.6596226 C70.72,42.8754717 68.1690566,43.8369811 65.6181132,43.9154717 C65.4486421,43.3082458 65.3110952,42.6925595 65.2060377,42.0709434 C66.2460377,41.7177358 67.3056604,41.5411321 68.3260377,41.2664151 C69.2943925,41.1200509 70.2383719,40.8427982 71.1320755,40.4422642 L65.0490566,40.9524528 C65.0295837,40.5667865 65.0295837,40.1803833 65.0490566,39.794717 C64.9509434,39.5788679 64.9509434,39.3826415 64.9509434,39.245283 Z" id="Path"></path>
            </g>
        </g>
    </g>
</svg>