<?xml version="1.0" encoding="UTF-8"?>
<svg width="347px" height="345px" viewBox="0 0 347 345" version="1.1" xmlns="http://www.w3.org/2000/svg" xmlns:xlink="http://www.w3.org/1999/xlink">
    <title>Asset 1</title>
    <g id="Page-1" stroke="none" stroke-width="1" fill="none" fill-rule="evenodd" opacity="0.532017299">
        <g id="Homepage-03" transform="translate(0.000000, -5849.000000)" fill="#001F54">
            <g id="FOOTER" transform="translate(-1099.000000, 5289.000000)">
                <g id="glox" transform="translate(0.857194, 0.837159)">
                    <g id="Asset-1" transform="translate(898.142806, 482.162841)">
                        <path d="M142.695484,202.870968 C155.182853,214.471712 170.78385,222.176694 187.585806,225.04129 C162.117419,236.40129 136.649032,206.71871 114.295484,200.855484 C86.7486265,219.533894 64.2213731,244.70401 48.7006452,274.145806 C69.7716129,280.925161 123.823226,310.790968 150.757419,302.729032 C165.781935,292.285161 174.576774,240.432258 185.753548,240.981935 C194.731613,271.763871 234.308387,270.298065 272.602581,270.298065 C310.896774,270.298065 350.656774,271.763871 359.451613,240.981935 C370.628387,240.981935 379.423226,292.285161 394.447742,302.729032 C421.565161,310.790968 475.433548,280.925161 496.504516,274.145806 C480.983788,244.70401 458.456535,219.533894 430.909677,200.855484 C409.289032,206.169032 383.820645,236.40129 357.619355,225.04129 C374.810833,222.382504 390.82111,214.664402 403.609032,202.870968 C396.349781,185.077563 385.56773,168.935648 371.910968,155.415484 C369.712258,159.812903 367.696774,164.027097 365.498065,168.24129 C358.871122,188.794612 346.697263,207.118806 330.31871,221.193548 C298.209989,251.44261 248.094528,251.44261 215.985806,221.193548 C199.827711,207.371243 187.678134,189.463273 180.806452,169.340645 C178.790968,165.126452 176.592258,160.912258 174.576774,156.514839 C160.933682,169.659963 150.08931,185.42793 142.695484,202.870968 Z M66.2903226,270.48129 C80.0059399,248.478838 96.5797552,228.393099 115.578065,210.749677 C123.513265,215.872911 131.708313,220.582006 140.130323,224.858065 C136.157589,224.520801 132.228937,223.784179 128.403871,222.659355 L115.944516,218.628387 C98.2511917,234.781835 81.6624814,252.105101 66.2903226,270.48129 L66.2903226,270.48129 Z M478.914839,270.48129 C463.591923,252.061077 447.000084,234.734544 429.260645,218.628387 L416.80129,222.659355 C413.034334,223.766428 409.168228,224.502829 405.258065,224.858065 C413.642192,220.621465 421.778363,215.91105 429.627097,210.749677 C448.819234,228.357911 465.579228,248.445256 479.464516,270.48129 L478.914839,270.48129 Z" id="Shape" style="mix-blend-mode: multiply;"></path>
                        <path d="M273.152258,339.557419 C265.802785,339.235301 258.585214,337.493129 251.898065,334.427097 L242.553548,332.045161 L226.063226,331.129032 C209.756129,310.058065 193.449032,307.126452 183.371613,315.005161 C161.567742,331.861935 169.263226,381.332903 197.48,388.295484 C187.801961,374.97184 187.292683,357.074357 196.197419,343.221935 C191.828162,358.56192 194.952045,375.064171 204.625806,387.745806 C236.507097,436.117419 241.270968,421.092903 259.593548,415.046452 L244.202581,429.154839 C252.997419,443.812903 262.525161,451.141935 272.602581,451.325161 C282.68,451.508387 292.207742,443.812903 301.185806,429.154839 L286.16129,414.496774 C304.483871,420.543226 309.614194,435.567742 341.129032,387.196129 C350.739548,374.483134 353.795009,357.983647 349.374194,342.672258 C358.27893,356.52468 357.769652,374.422163 348.091613,387.745806 C376.308387,381.332903 384.736774,331.861935 362.383226,314.455484 C352.122581,306.576774 335.815484,309.508387 319.691613,330.579355 L303.20129,331.495484 L293.856774,333.877419 C287.105429,336.944532 279.827759,338.686197 272.419355,339.007742 L273.152258,339.557419 Z M303.20129,383.531613 C286.16129,379.500645 294.956129,371.255484 273.152258,371.072258 C251.348387,370.889032 260.143226,379.500645 243.286452,383.531613 C219.100645,389.211613 232.292903,341.939355 248.783226,352.016774 C256.353976,355.759618 264.707844,357.643949 273.152258,357.513548 C281.598875,357.665349 289.957737,355.779892 297.52129,352.016774 C314.011613,341.939355 327.203871,389.211613 303.20129,383.531613 Z" id="Shape" style="mix-blend-mode: multiply;"></path>
                        <path d="M247.867097,278.909677 C227.345806,282.024516 181.539355,301.996129 197.296774,267.916129 C182.272258,267.916129 162.117419,316.837419 210.672258,304.56129 C222.948387,301.629677 261.425806,278.176774 263.44129,306.576774 C259.593548,306.576774 245.11871,292.101935 235.774194,306.576774 C231.193548,313.539355 231.010323,326.548387 248.6,326.914839 C247.134194,324.532903 245.485161,324.166452 244.202581,320.501935 C240.354839,309.874839 252.08129,310.058065 257.76129,320.501935 C260.58995,326.286405 266.754966,329.662485 273.152258,328.930323 C279.601896,329.687843 285.833036,326.315696 288.726452,320.501935 C294.223226,310.24129 305.949677,310.058065 302.285161,320.501935 C300.819355,324.166452 299.170323,324.532903 297.704516,326.914839 C316.027097,326.914839 315.110968,313.539355 310.530323,306.576774 C301.552258,292.468387 286.894194,306.576774 282.863226,306.576774 C284.87871,278.176774 323.356129,301.629677 335.815484,304.56129 C384.187097,316.104516 364.032258,266.816774 349.007742,267.916129 C364.765161,301.996129 318.95871,282.024516 298.437419,278.909677 C281.664875,276.526539 264.639642,276.526539 247.867097,278.909677 Z" id="Path" style="mix-blend-mode: multiply;"></path>
                        <path d="M62.8090323,24.7754839 C187.036129,38.5174194 167.064516,233.652903 273.152258,233.652903 C379.24,233.652903 359.451613,37.9677419 483.67871,24.7754839 C474.639582,13.0247939 461.598407,5.00447113 447.033548,2.23870968 C440.291328,1.23522121 433.437704,1.23522121 426.695484,2.23870968 C405.44129,5.90322581 398.295484,23.676129 388.218065,46.396129 C390.034519,38.7819426 390.652695,30.9310968 390.050323,23.1264516 C384.370323,-0.509677419 355.054194,8.83483871 341.129032,17.996129 C362.566452,31.7380645 368.612903,44.7470968 362.383226,80.476129 C359.720986,99.2522654 353.502375,117.348424 344.060645,133.794839 C330.225049,123.222644 314.394812,115.556821 297.52129,111.258065 L301.369032,128.298065 L301.369032,134.16129 L293.856774,151.20129 L294.772903,151.20129 L294.772903,151.20129 C300.284644,156.756464 303.379644,164.263483 303.384516,172.089032 C303.388277,179.970231 300.295593,187.537437 294.772903,193.16 L294.772903,193.16 C289.150341,198.68269 281.583135,201.775374 273.701935,201.771613 C265.876386,201.766741 258.369367,198.671741 252.814194,193.16 L252.814194,193.16 C247.291504,187.537437 244.198819,179.970231 244.202581,172.089032 C244.207453,164.263483 247.302452,156.756464 252.814194,151.20129 L252.814194,151.20129 L253.730323,151.20129 L246.218065,134.16129 L246.218065,128.298065 L249.516129,111.258065 C233.022534,115.992136 217.637457,123.964969 204.259355,134.710968 C194.817625,118.264553 188.599014,100.168394 185.936774,81.3922581 C179.707097,45.6632258 185.936774,32.6541935 207.374194,18.9122581 C192.899355,9.75096774 163.4,0.589677419 158.086452,23.8593548 C156.932443,31.2614747 156.87071,38.792861 157.903226,46.2129032 C148.375484,23.4929032 141.229677,5.72 119.975484,1.32258065 C113.294733,0.318338941 106.501396,0.318338941 99.8206452,1.32258065 C84.9511177,4.15217981 71.7171615,12.5380531 62.8090323,24.7754839 Z" id="Path" style="mix-blend-mode: multiply;"></path>
                        <path d="M254.096774,129.580645 L272.419355,42.1819355 L290.741935,129.580645 L280.114839,153.766452 C288.824996,157.732676 293.591352,167.235054 291.562102,176.588124 C289.532852,185.941194 281.257124,192.61395 271.686452,192.61395 C262.115779,192.61395 253.840052,185.941194 251.810801,176.588124 C249.781551,167.235054 254.547907,157.732676 263.258065,153.766452 L254.096774,129.580645 Z" id="Path" style="mix-blend-mode: multiply;"></path>
                        <path d="M397.929032,349.451613 C412.785698,348.759744 427.330885,344.951776 440.620645,338.274839 C422.298065,339.374194 418.267097,338.274839 398.295484,338.274839 C398.828621,331.609048 399.869927,324.993692 401.410323,318.486452 C419.732903,317.020645 445.20129,307.309677 464.073548,305.110968 C479.386916,345.069232 508.507614,378.220026 546.15871,398.556129 C531.683871,411.931613 460.225806,435.20129 429.810323,439.049032 C425.68519,434.856676 422.001361,430.25189 418.816774,425.307097 C442.136074,421.338826 464.620725,413.472295 485.327742,402.037419 C464.44,403.686452 435.856774,415.962581 413.869677,416.87871 C411.465401,412.32755 409.38372,407.613157 407.64,402.770323 C425.962581,398.556129 461.691613,392.326452 473.60129,381.332903 C451.797419,383.348387 427.978065,392.326452 404.15871,393.059355 C402.576279,387.389402 401.291938,381.64045 400.310968,375.836129 C410.021935,372.538065 419.916129,370.889032 429.443871,368.323871 C438.485854,366.9572 447.300232,364.368361 455.645161,360.628387 L398.845161,365.392258 C398.663334,361.791111 398.663334,358.183083 398.845161,354.581935 C397.929032,352.566452 397.929032,350.734194 397.929032,349.451613 Z" id="Path" style="mix-blend-mode: multiply;"></path>
                    </g>
                </g>
            </g>
        </g>
    </g>
</svg>