<?xml version="1.0"?>
<svg xmlns="http://www.w3.org/2000/svg" xmlns:xlink="http://www.w3.org/1999/xlink" xmlns:svgjs="http://svgjs.com/svgjs" version="1.1" width="512" height="512" x="0" y="0" viewBox="0 0 512 512" style="enable-background:new 0 0 512 512" xml:space="preserve" class=""><g><g xmlns="http://www.w3.org/2000/svg"><path d="m89.768 246.933h133.666c12.958 0 23.5-10.542 23.5-23.5v-133.666c0-12.958-10.542-23.5-23.5-23.5h-133.666c-12.958 0-23.5 10.542-23.5 23.5v133.666c0 12.958 10.542 23.5 23.5 23.5zm-8.5-157.166c0-4.687 3.813-8.5 8.5-8.5h133.666c4.687 0 8.5 3.813 8.5 8.5v133.666c0 4.687-3.813 8.5-8.5 8.5h-133.666c-4.687 0-8.5-3.813-8.5-8.5z" fill="#ffffff" data-original="#000000" style="" class=""/><path d="m123.468 213.8c13.27 0 24.067-10.796 24.067-24.066v-38.938l51.266-6.409v23.058c-2.8-1.143-5.86-1.779-9.066-1.779-13.271 0-24.067 10.796-24.067 24.067 0 13.27 10.796 24.066 24.067 24.066 13.27 0 24.066-10.796 24.066-24.066v-73.45c0-4.524-1.945-8.837-5.337-11.832-3.393-2.996-7.916-4.393-12.403-3.829l-49.7 6.213c-7.882.985-13.825 7.718-13.825 15.661v44.949c-2.8-1.143-5.86-1.779-9.067-1.779-13.27 0-24.066 10.796-24.066 24.067-.002 13.27 10.795 24.067 24.065 24.067zm66.266-15c-5 0-9.067-4.067-9.067-9.066s4.067-9.067 9.067-9.067c4.999 0 9.066 4.067 9.066 9.067.001 4.998-4.067 9.066-9.066 9.066zm-41.514-77.081 49.7-6.212c.233-.032.44.035.616.19.175.155.265.353.265.587v12.988l-51.266 6.409v-13.184c-.001-.395.294-.729.685-.778zm-24.752 58.947c4.999 0 9.067 4.067 9.067 9.067 0 4.999-4.067 9.066-9.067 9.066-4.999 0-9.066-4.067-9.066-9.066-.001-4.999 4.067-9.067 9.066-9.067z" fill="#ffffff" data-original="#000000" style="" class=""/><path d="m511.997 40.632c0-22.405-18.227-40.632-40.632-40.632h-430.73c-22.405 0-40.632 18.227-40.632 40.632v314.769c0 22.405 18.228 40.632 40.632 40.632h144.953l-6.784 67.835h-29.769c-9.098 0-16.5 7.402-16.5 16.5v15.132c0 9.098 7.402 16.5 16.5 16.5h21.558c4.142 0 7.5-3.358 7.5-7.5s-3.358-7.5-7.5-7.5h-21.558c-.827 0-1.5-.673-1.5-1.5v-15.132c0-.827.673-1.5 1.5-1.5h213.932c.827 0 1.5.673 1.5 1.5v15.132c0 .827-.673 1.5-1.5 1.5h-162.374c-4.142 0-7.5 3.358-7.5 7.5s3.358 7.5 7.5 7.5h162.374c9.098 0 16.5-7.402 16.5-16.5v-15.132c0-9.098-7.402-16.5-16.5-16.5h-29.77l-6.784-67.835h80.254c4.142 0 7.5-3.358 7.5-7.5s-3.358-7.5-7.5-7.5h-88.493c-.02 0-.04 0-.06 0h-124.234c-.015 0-.029 0-.044 0h-62.869v-9.068c0-4.142-3.358-7.5-7.5-7.5s-7.5 3.358-7.5 7.5v9.068h-18.133v-9.068c0-4.142-3.358-7.5-7.5-7.5s-7.5 3.358-7.5 7.5v9.068h-18.133v-9.068c0-4.142-3.358-7.5-7.5-7.5s-7.5 3.358-7.5 7.5v9.068h-9.066c-14.134 0-25.632-11.499-25.632-25.632v-9.07h481.995v9.07c0 14.134-11.499 25.632-25.632 25.632h-34.699c-4.142 0-7.5 3.358-7.5 7.5s3.358 7.5 7.5 7.5h34.699c22.405 0 40.632-18.228 40.632-40.632v-314.769zm-318.118 423.236 1.814-18.136h120.615l1.814 18.136zm120.929-33.136h-117.615l3.47-34.699h110.674zm149.058-99.401h-415.732v-282.413c0-.432.352-.784.783-.784h414.166c.432 0 .783.351.783.784zm15 0v-282.413c0-8.703-7.08-15.784-15.783-15.784h-414.166c-8.703 0-15.783 7.08-15.783 15.784v282.413h-18.131v-290.699c0-14.134 11.498-25.632 25.632-25.632h430.73c14.134 0 25.632 11.498 25.632 25.632v290.698h-18.131z" fill="#ffffff" data-original="#000000" style="" class=""/><path d="m438.233 281.633h-175.936c-3.16-9.608-12.212-16.567-22.864-16.567s-19.704 6.959-22.864 16.567h-142.801c-4.142 0-7.5 3.358-7.5 7.5s3.358 7.5 7.5 7.5h142.802c3.16 9.608 12.212 16.566 22.864 16.566s19.704-6.959 22.863-16.566h175.935c4.142 0 7.5-3.358 7.5-7.5.001-4.142-3.357-7.5-7.499-7.5zm-198.799 16.566c-4.999 0-9.067-4.067-9.067-9.066s4.067-9.067 9.067-9.067c4.999 0 9.066 4.067 9.066 9.067 0 4.999-4.067 9.066-9.066 9.066z" fill="#ffffff" data-original="#000000" style="" class=""/><path d="m281.634 162.897v59.969c0 4.142 3.358 7.5 7.5 7.5s7.5-3.358 7.5-7.5v-59.969c9.608-3.16 16.566-12.212 16.566-22.864s-6.959-19.704-16.566-22.864v-26.836c0-4.142-3.358-7.5-7.5-7.5s-7.5 3.358-7.5 7.5v26.836c-9.608 3.16-16.567 12.212-16.567 22.864s6.958 19.704 16.567 22.864zm7.5-31.93c4.999 0 9.066 4.067 9.066 9.066s-4.067 9.067-9.066 9.067c-5 0-9.067-4.067-9.067-9.067 0-4.999 4.067-9.066 9.067-9.066z" fill="#ffffff" data-original="#000000" style="" class=""/><path d="m347.9 196.03v26.836c0 4.142 3.358 7.5 7.5 7.5s7.5-3.358 7.5-7.5v-26.836c9.608-3.16 16.566-12.212 16.566-22.864s-6.958-19.704-16.566-22.863v-59.97c0-4.142-3.358-7.5-7.5-7.5s-7.5 3.358-7.5 7.5v59.97c-9.608 3.16-16.566 12.211-16.566 22.863-.001 10.652 6.958 19.705 16.566 22.864zm7.5-31.93c4.999 0 9.066 4.067 9.066 9.066 0 5-4.067 9.067-9.066 9.067s-9.066-4.067-9.066-9.067c-.001-4.999 4.067-9.066 9.066-9.066z" fill="#ffffff" data-original="#000000" style="" class=""/><path d="m429.166 117.17v-26.837c0-4.142-3.358-7.5-7.5-7.5s-7.5 3.358-7.5 7.5v26.836c-9.608 3.16-16.567 12.212-16.567 22.864s6.959 19.704 16.567 22.864v59.969c0 4.142 3.358 7.5 7.5 7.5s7.5-3.358 7.5-7.5v-59.969c9.608-3.16 16.566-12.212 16.566-22.864.001-10.651-6.958-19.704-16.566-22.863zm-7.5 31.93c-5 0-9.067-4.067-9.067-9.067 0-4.999 4.067-9.066 9.067-9.066 4.999 0 9.066 4.067 9.066 9.066.001 5-4.067 9.067-9.066 9.067z" fill="#ffffff" data-original="#000000" style="" class=""/></g></g></svg>
