<?xml version="1.0" encoding="UTF-8"?>
<svg width="486px" height="438px" viewBox="0 0 486 438" version="1.1" xmlns="http://www.w3.org/2000/svg" xmlns:xlink="http://www.w3.org/1999/xlink">
    <title>Group 2</title>
    <g id="Page-1" stroke="none" stroke-width="1" fill="none" fill-rule="evenodd">
        <g id="STM_Logo_RGB" fill="#000000" fill-rule="nonzero">
            <g id="Group-2">
                <g id="Group" transform="translate(97.000000, 0.000000)">
                    <g id="Path">
                        <path d="M79.1,210.7 L77.7,211.4 C66.7,214.9 50.5,208.9 36.6,202.8 C27.8,214 16.6,221.9 0.3,225.6 C6.1,241.8 37.4,271.8 53.9,284.6 C68.9,272.9 82.7,244.9 84.4,207.9 C83.8,207.5 83.3,207.1 82.7,206.7 C81.6,208.3 80.4,209.7 79.1,210.7 Z"></path>
                        <path d="M254.6,202.8 C240.8,208.9 224.5,214.9 213.6,211.4 L212.2,210.7 C210.9,209.7 209.7,208.4 208.5,206.8 C207.9,207.2 207.3,207.6 206.8,208 C208.5,244.9 222.3,273 237.3,284.7 C253.8,271.9 285.1,241.9 290.9,225.7 C274.6,222 263.5,214 254.6,202.8 Z"></path>
                        <path d="M119.3,96.2 L120.6,99.9 C121.4,102.2 122.2,104.5 123.1,106.7 C123.8,105.3 124.6,104 125.6,102.8 C129.9,97 136,93.2 144,91.6 L146.8,91.6 C154.8,93.2 160.9,97 165.2,102.8 C166.1,104 166.9,105.3 167.7,106.7 C168.6,104.5 169.4,102.2 170.2,99.9 L171.5,96.2 C171.9,95.1 172.3,94 172.7,92.9 C163.9,89.6 154.7,87.9 145.9,87.9 L145.4,87.9 L144.9,87.9 C136.1,87.9 126.9,89.7 118.1,92.9 C118.5,94 118.8,95.1 119.3,96.2 Z"></path>
                        <path d="M214.8,206.9 C230.2,211.9 261,193.5 273,189.4 C271.8,182.5 250.5,152.6 235.7,144.1 C223.3,147.3 208.8,165.9 194.3,159 C202,159.3 215.7,149.9 219.8,145.4 C217.3,130 208.9,117.1 197.5,107.5 C195.5,112.4 193.4,117.3 191.2,122 C179.7,146.2 164.7,165.1 145.4,163.4 C126.1,165.2 111.1,146.2 99.6,122 C97.4,117.3 95.3,112.4 93.3,107.5 C82,117.1 73.5,130 71,145.4 C75.1,149.9 88.8,159.3 96.5,159 C82,166 67.5,147.4 55.1,144.1 C40.3,152.6 18.9,182.6 17.8,189.4 C29.8,193.6 60.5,211.9 76,206.9 C84.5,200.5 89.6,168.7 95.9,169.1 C101,187.9 123.6,187 145.4,187 C167.2,187 189.8,187.9 194.9,169.1 C201.2,168.6 206.2,200.5 214.8,206.9 Z"></path>
                        <path d="M145.3,156 C176.8,159.8 197.8,87.3 207.7,52.7 C213.7,31.9 220.8,10.6 231,0.6 L226.9,0.6 C204.5,0.6 196.9,4.7 189.9,22.1 C172.6,22.5 171.8,27.4 165.4,42.9 C192.3,48.1 186.7,75.9 178.3,98.8 C174.9,108 172.2,117.6 165.2,124.4 C163.8,110.1 157.8,101.2 145.4,98.7 C133,101.2 127,110.1 125.6,124.4 C118.6,117.5 115.9,108 112.5,98.8 C104.1,75.9 98.4,48.1 125.4,42.9 C119,27.5 118.1,22.5 100.9,22.1 C93.9,4.7 86.3,0.6 63.9,0.6 L59.8,0.6 C70,10.7 77.1,31.9 83.1,52.7 C92.8,87.3 113.8,159.8 145.3,156 Z"></path>
                    </g>
                    <g transform="translate(92.000000, 188.000000)">
                        <path d="M44.2,36 C43.8,34.1 40.9,31.9 42.8,31.9 C43.8,31.9 46.3,37.4 50.2,39.9 C52.7,41.5 54.6,41.5 57.1,39.9 C61,37.4 63.5,31.9 64.5,31.9 C66.5,31.9 63.5,34.2 63.1,36 C62.7,37.9 71.5,36.1 72.9,32.1 C75.1,25.9 68.5,20.6 63.5,19.6 C59.5,18.8 60.3,15.2 59.9,10.9 C59.5,7.4 59.2,7.9 59.2,4 C59.2,3.3 58.6,2.7 58,2.7 L49.4,2.7 C48.7,2.7 48.2,3.3 48.2,4 C48.2,7.9 47.8,7.3 47.5,10.9 C47.1,15.2 47.8,18.7 43.9,19.6 C38.9,20.6 32.3,25.9 34.5,32.1 C35.8,36.2 44.6,37.9 44.2,36 Z" id="Path"></path>
                        <path d="M107.2,26 C106.5,27.4 102,29.2 97.7,29.8 C93.8,30.3 90.1,29.8 89.1,29.9 C86,30.1 82.9,30.7 79.8,31.5 C75.9,32.5 71.9,39.6 67.7,40.6 C63.4,42.1 60.3,44.6 56.4,45.5 C54.8,45.9 52.8,45.9 51.2,45.5 C47.2,44.7 44,42.1 39.7,40.6 C35.4,39.6 31.4,32.5 27.6,31.5 C24.5,30.7 21.4,30 18.3,29.9 C17.3,29.8 13.6,30.3 9.7,29.8 C5.3,29.2 0.9,27.5 0.2,26 C0.5,36.9 -1.9,51.4 14.3,61.1 C25.5,76.7 28.6,72.4 30.8,83 C34.9,89.2 44.5,92.1 53.7,91.8 C63,92.2 72.6,89.2 76.6,83 C78.8,72.4 81.9,76.6 93.1,61.1 C109.3,51.4 106.8,36.9 107.2,26 Z M76.3,61.2 L31,61.2 C20.5,52.3 86.8,52.3 76.3,61.2 Z" id="Shape"></path>
                        <path d="M31.6,2.9 L12.5,0.8 L28.8,10.9 C32.9,12.1 35.1,3.3 31.6,2.9 Z" id="Path"></path>
                        <path d="M78.4,10.9 L94.7,0.8 L75.6,2.9 C72.2,3.3 74.4,12.1 78.4,10.9 Z" id="Path"></path>
                    </g>
                </g>
                <g id="Group" transform="translate(0.000000, 333.000000)">
                    <g transform="translate(99.000000, 75.000000)">
                        <polygon id="Path" points="24 27.8 24 7.9 23.8 7.9 14.3 23.9 13.6 23.9 4.1 7.9 3.9 7.9 3.9 27.8 0.6 27.8 0.6 1.5 4.3 1.5 14.1 18 14.2 18 24 1.5 27.5 1.5 27.5 27.8"></polygon>
                        <path d="M37.7,27.8 L49.9,1.5 L53.2,1.5 L65.4,27.8 L61.6,27.8 L58,19.9 L44.9,19.9 L41.4,27.8 L37.7,27.8 Z M46.1,17.1 L56.7,17.1 L51.5,5.6 L51.3,5.6 L46.1,17.1 Z" id="Shape"></path>
                        <path d="M94.2,7.1 C92.6,5.7 89.3,3.8 84.5,3.8 C81.1,3.8 77.7,5 77.7,8.3 C77.7,11.7 82,11.8 86.3,12.1 C90.9,12.4 98.3,12.9 98.3,19.9 C98.3,26 92.9,28.5 86.6,28.5 C79.9,28.5 75.7,25.7 72.8,23.1 L74.9,20.7 C77.1,22.8 80.8,25.5 86.6,25.5 C91.1,25.5 94.8,23.9 94.8,20.4 C94.8,16.5 90.8,15.9 86.3,15.5 C80.6,15.1 74.2,14.7 74.2,8.7 C74.2,2.7 80,0.9 84.7,0.9 C90.1,0.9 94.4,3.1 96.4,4.7 L94.2,7.1 Z" id="Path"></path>
                        <polygon id="Path" points="105.7 1.5 129.6 1.5 129.6 4.6 119.4 4.6 119.4 27.8 115.9 27.8 115.9 4.6 105.7 4.6"></polygon>
                        <polygon id="Path" points="153.8 15.5 143.2 15.5 143.2 24.7 161.7 24.7 161.7 27.8 139.7 27.8 139.7 1.5 160.8 1.5 160.8 4.6 143.2 4.6 143.2 12.4 153.8 12.4"></polygon>
                        <path d="M172.5,27.8 L172.5,1.5 L187,1.5 C190.4,1.5 192.7,2.4 194.4,4.2 C195.7,5.6 196.4,7.3 196.4,9.3 C196.4,12.8 194,15.6 190.3,16.6 L196.8,27.7 L192.8,27.7 L186.8,17 L176,17 L176,27.7 L172.5,27.7 L172.5,27.8 Z M176,4.6 L176,14 L187.9,14 C190.8,14 192.9,11.9 192.9,9.3 C192.9,8.1 192.4,7 191.7,6.2 C190.4,4.9 188.8,4.6 187,4.6 L176,4.6 L176,4.6 Z" id="Shape"></path>
                        <polygon id="Path" points="208.3 27.8 208.3 1.5 211.8 1.5 211.8 27.8"></polygon>
                        <polygon id="Path" points="248.9 1.5 248.9 27.8 245.7 27.8 229 7.6 229 7.6 229 27.7 225.5 27.7 225.5 1.4 228.7 1.4 245.4 21.5 245.4 21.5 245.4 1.4 248.9 1.4"></polygon>
                        <path d="M284,7.4 C281.7,5.2 278,3.9 274.7,3.9 C268.5,3.9 263.9,8.7 263.9,14.6 C263.9,20.2 268.1,25.3 275,25.3 C278.1,25.3 281.5,24.3 283.5,22.7 L283.5,16.5 L275,16.5 L275,13.4 L286.7,13.4 L286.7,24.4 C283.5,26.8 279,28.4 274.8,28.4 C266.6,28.4 260.2,22.2 260.2,14.6 C260.2,7 266.6,0.8 274.6,0.8 C278.7,0.8 283,2.4 286.4,5.2 L284,7.4 Z" id="Path"></path>
                    </g>
                    <path d="M24.1,19.4 C18.2,18.9 12.3,18.6 12.3,14.6 C12.3,10.7 16.3,9.1 20.8,9.1 C28.2,9.1 33.9,11.9 36.6,13.9 L42.2,7 C38.3,4.4 30.4,0.9 21.1,0.9 C12.6,0.9 2.5,4.3 2.5,15.2 C2.5,26.6 14.1,27.7 23.9,28.3 C30.6,28.9 35.3,29.8 35.3,34.2 C35.3,38.4 30.8,40.6 25,40.6 C15.9,40.6 9.5,36.1 5.7,33 L0.1,39.7 C5.3,44 13.2,48.6 24.8,48.6 C35.8,48.6 45,44.3 45,33.2 C45.1,20.9 32.3,20 24.1,19.4 Z" id="Path"></path>
                    <polygon id="Path" points="92.2 2.4 49.8 2.4 49.8 11 66.1 11 66.1 47.4 75.9 47.4 75.9 11 92.2 11"></polygon>
                    <polygon id="Path" points="111.2 2.4 90.4 47.4 100.8 47.4 104.8 37.9 108.2 30.1 115 14.2 115.4 14.2 122.2 30.1 125.6 37.9 129.7 47.4 140.5 47.4 119.7 2.4"></polygon>
                    <polygon id="Path" points="180 30.3 179.9 30.3 157 2.4 148.5 2.4 148.5 47.4 158.4 47.4 158.4 19.6 158.5 19.6 181.3 47.4 189.9 47.4 189.9 2.4 180 2.4"></polygon>
                    <path d="M225.2,2.4 L204.1,2.4 L204.1,47.4 L225.2,47.4 C233.7,47.4 238.6,45.1 242.4,41.5 C246.6,37.4 248.9,31.4 248.9,24.9 C248.9,18.6 246.8,12.9 242.8,8.9 C238.8,4.8 233.5,2.4 225.2,2.4 Z M234.5,35.7 C232.2,37.8 230,38.9 224.9,38.9 L214,38.9 L214,10.9 L224.9,10.9 C230.2,10.9 232.6,12.2 234.9,14.5 C237.4,17 238.7,20.6 238.7,24.9 C238.6,29.5 237.1,33.1 234.5,35.7 Z" id="Shape"></path>
                    <path d="M332.4,1 C318.2,1 307,11.7 307,24.8 C307,38.2 318.2,48.8 332.4,48.8 C346.6,48.8 358.1,38.2 358.1,24.8 C358.1,11.7 346.6,1 332.4,1 Z M332.4,40.3 C323.9,40.3 317.3,33.3 317.3,24.8 C317.3,16.5 323.9,9.6 332.4,9.6 C341,9.6 347.8,16.5 347.8,24.8 C347.7,33.3 341,40.3 332.4,40.3 Z" id="Shape"></path>
                    <rect id="Rectangle" x="368.4" y="2.4" width="9.8" height="45"></rect>
                    <polygon id="Path" points="423.9 30.3 423.8 30.3 400.9 2.4 392.4 2.4 392.4 47.4 402.3 47.4 402.3 19.6 402.4 19.6 425.2 47.4 433.8 47.4 433.8 2.4 423.9 2.4"></polygon>
                    <polygon id="Path" points="442.7 2.4 442.7 11 459 11 459 47.4 468.8 47.4 468.8 11 485.1 11 485.1 2.4"></polygon>
                    <path d="M298.1,7.4 C295.1,4.2 290.9,2.4 284.5,2.4 L259.6,2.4 L259.6,10.7 L284.9,10.7 C286.7,10.7 288.7,11 290.2,12.6 C291.2,13.7 291.9,15.1 291.9,16.7 C291.9,18.2 291.2,19.7 290.1,20.8 C288.6,22.2 286.7,22.5 284.9,22.5 L259.6,22.5 L259.6,47.4 L269.4,47.4 L269.4,30.9 L284.5,30.9 C290.6,30.9 294.6,29.2 297.4,26.6 C300,24.1 301.7,20.6 301.7,16.7 C301.7,13.2 300.4,10 298.1,7.4 Z" id="Path"></path>
                </g>
            </g>
        </g>
    </g>
</svg>